M48
; DRILL file {KiCad 9.0.7} date 2026-01-22T08:28:12-0500
; FORMAT={-:-/ absolute / metric / decimal}
; #@! TF.CreationDate,2026-01-22T08:28:12-05:00
; #@! TF.GenerationSoftware,Kicad,Pcbnew,9.0.7
; #@! TF.FileFunction,Plated,1,4,PTH
FMAT,2
METRIC
; #@! TA.AperFunction,Plated,PTH,ComponentDrill
T1C0.750
; #@! TA.AperFunction,Plated,PTH,ComponentDrill
T2C0.800
; #@! TA.AperFunction,Plated,PTH,ComponentDrill
T3C0.950
; #@! TA.AperFunction,Plated,PTH,ComponentDrill
T4C1.020
; #@! TA.AperFunction,Plated,PTH,ComponentDrill
T5C1.100
; #@! TA.AperFunction,Plated,PTH,ComponentDrill
T6C1.300
; #@! TA.AperFunction,Plated,PTH,ComponentDrill
T7C1.500
%
G90
G05
T1
X156.0Y-100.0
X157.27Y-100.0
X158.54Y-100.0
T2
X100.92Y-133.0
X103.46Y-133.0
X106.0Y-133.0
X116.0Y-133.0
X118.54Y-133.0
X121.08Y-133.0
X122.14Y-89.0
X122.14Y-101.7
X124.68Y-89.0
X124.68Y-101.7
X127.22Y-89.0
X127.22Y-101.7
X129.08Y-63.42
X129.76Y-89.0
X129.76Y-101.7
X131.62Y-63.42
X132.3Y-89.0
X132.3Y-101.7
X132.46Y-132.995
X134.16Y-63.42
X134.84Y-89.0
X134.84Y-101.7
X135.0Y-132.995
X136.7Y-63.42
X137.38Y-89.0
X137.38Y-101.7
X137.54Y-132.995
X139.24Y-63.42
X139.92Y-89.0
X139.92Y-101.7
X141.78Y-63.42
X142.46Y-89.0
X142.46Y-101.7
X144.32Y-63.42
X145.0Y-89.0
X145.0Y-101.7
X146.95Y-63.42
X149.0Y-133.0
X150.0Y-90.46
X150.0Y-93.0
X150.0Y-96.46
X150.0Y-99.0
X151.54Y-133.0
X154.08Y-133.0
X164.0Y-98.46
X164.0Y-101.0
X166.0Y-91.0
X166.0Y-93.54
X166.0Y-133.0
X167.3Y-53.14
X167.3Y-55.68
X167.3Y-58.22
X167.3Y-60.76
X167.3Y-63.3
X167.3Y-65.84
X167.3Y-68.38
X167.3Y-70.92
X167.3Y-73.46
X167.3Y-76.0
X168.54Y-133.0
X169.84Y-53.14
X169.84Y-55.68
X169.84Y-58.22
X169.84Y-60.76
X169.84Y-65.84
X169.84Y-68.38
X169.84Y-70.92
X169.84Y-73.46
X169.84Y-76.0
X169.84Y-63.3
X169.92Y-86.58
X169.92Y-99.28
X171.08Y-133.0
X172.46Y-86.58
X172.46Y-99.28
X175.0Y-86.58
X175.0Y-99.28
X177.367Y-121.946
X177.54Y-86.58
X177.54Y-99.28
X179.0Y-120.0
X180.08Y-86.58
X180.08Y-99.28
X180.633Y-118.054
X182.62Y-86.58
X182.62Y-99.28
X185.16Y-86.58
X185.16Y-99.28
X187.7Y-86.58
X187.7Y-99.28
X188.0Y-110.0
X189.633Y-108.054
X190.24Y-86.58
X190.24Y-99.28
X191.265Y-106.108
X192.7Y-53.14
X192.7Y-55.68
X192.7Y-58.22
X192.7Y-60.76
X192.7Y-63.3
X192.7Y-65.84
X192.7Y-68.38
X192.7Y-70.92
X192.7Y-73.46
X192.7Y-76.0
X192.78Y-86.58
X192.78Y-99.28
X195.24Y-53.14
X195.24Y-55.68
X195.24Y-58.22
X195.24Y-63.3
X195.24Y-65.84
X195.24Y-68.38
X195.24Y-70.92
X195.24Y-73.46
X195.24Y-76.0
X195.24Y-60.76
X199.367Y-96.946
X201.0Y-95.0
X202.633Y-93.054
X208.0Y-86.0
X209.633Y-84.054
X211.265Y-82.108
T3
X88.0Y-81.0
X90.119Y-91.082
X90.5Y-81.0
X92.619Y-91.082
X93.0Y-81.0
X95.119Y-91.082
X95.5Y-81.0
X153.0Y-74.0
X153.0Y-83.0
X154.0Y-65.0
X155.5Y-74.0
X155.5Y-83.0
X156.5Y-65.0
X158.0Y-74.0
X158.0Y-83.0
X159.0Y-65.0
X160.5Y-74.0
X160.5Y-83.0
T4
X154.18Y-93.0
X156.72Y-93.0
X159.26Y-93.0
X161.8Y-93.0
T5
X102.0Y-70.92
X102.0Y-73.46
X102.0Y-76.0
X102.0Y-78.54
X102.0Y-81.08
X102.0Y-83.62
X102.0Y-86.16
X102.0Y-88.7
X102.0Y-91.24
X102.0Y-93.78
X102.0Y-96.32
X102.0Y-98.86
X102.0Y-101.4
X102.0Y-103.94
X117.24Y-70.92
X117.24Y-73.46
X117.24Y-76.0
X117.24Y-78.54
X117.24Y-81.08
X117.24Y-83.62
X117.24Y-86.16
X117.24Y-88.7
X117.24Y-91.24
X117.24Y-93.78
X117.24Y-96.32
X117.24Y-98.86
X117.24Y-101.4
X117.24Y-103.94
T6
X91.918Y-118.119
X93.0Y-123.0
X96.0Y-141.0
X100.0Y-109.0
X100.0Y-111.54
X100.0Y-124.0
X100.0Y-126.54
X101.0Y-141.0
X106.0Y-141.0
X113.0Y-140.968
X118.0Y-140.968
X123.0Y-140.968
X130.0Y-141.0
X135.0Y-141.0
X137.5Y-109.04
X137.5Y-111.58
X137.5Y-124.0
X137.5Y-126.54
X140.0Y-141.0
X147.0Y-141.0
X152.0Y-141.0
X157.0Y-141.0
X164.25Y-140.968
X169.25Y-140.968
X174.25Y-140.968
X174.75Y-106.968
X179.75Y-106.968
X179.98Y-131.3
X183.194Y-127.47
X186.408Y-123.64
X190.98Y-118.3
X194.194Y-114.47
X197.408Y-110.64
X202.0Y-105.0
X205.214Y-101.17
X208.428Y-97.34
X213.0Y-92.0
X216.214Y-88.17
X219.428Y-84.34
T7
X142.3Y-110.92
X142.3Y-123.62
X167.7Y-110.92
X167.7Y-123.62
M30
