%TF.GenerationSoftware,KiCad,Pcbnew,9.0.7*%
%TF.CreationDate,2026-01-22T08:28:16-05:00*%
%TF.ProjectId,ProtosuitDevBoard,50726f74-6f73-4756-9974-446576426f61,rev?*%
%TF.SameCoordinates,Original*%
%TF.FileFunction,Soldermask,Top*%
%TF.FilePolarity,Negative*%
%FSLAX46Y46*%
G04 Gerber Fmt 4.6, Leading zero omitted, Abs format (unit mm)*
G04 Created by KiCad (PCBNEW 9.0.7) date 2026-01-22 08:28:16*
%MOMM*%
%LPD*%
G01*
G04 APERTURE LIST*
G04 Aperture macros list*
%AMRoundRect*
0 Rectangle with rounded corners*
0 $1 Rounding radius*
0 $2 $3 $4 $5 $6 $7 $8 $9 X,Y pos of 4 corners*
0 Add a 4 corners polygon primitive as box body*
4,1,4,$2,$3,$4,$5,$6,$7,$8,$9,$2,$3,0*
0 Add four circle primitives for the rounded corners*
1,1,$1+$1,$2,$3*
1,1,$1+$1,$4,$5*
1,1,$1+$1,$6,$7*
1,1,$1+$1,$8,$9*
0 Add four rect primitives between the rounded corners*
20,1,$1+$1,$2,$3,$4,$5,0*
20,1,$1+$1,$4,$5,$6,$7,0*
20,1,$1+$1,$6,$7,$8,$9,0*
20,1,$1+$1,$8,$9,$2,$3,0*%
G04 Aperture macros list end*
%ADD10R,1.730000X2.030000*%
%ADD11O,1.730000X2.030000*%
%ADD12RoundRect,0.250001X-1.149999X-1.149999X1.149999X-1.149999X1.149999X1.149999X-1.149999X1.149999X0*%
%ADD13C,2.800000*%
%ADD14RoundRect,0.250000X-0.600000X-0.725000X0.600000X-0.725000X0.600000X0.725000X-0.600000X0.725000X0*%
%ADD15O,1.700000X1.950000*%
%ADD16RoundRect,0.250001X0.141745X-1.620155X1.620155X0.141745X-0.141745X1.620155X-1.620155X-0.141745X0*%
%ADD17C,1.440000*%
%ADD18C,1.600000*%
%ADD19RoundRect,0.450000X-1.050000X-2.050000X1.050000X-2.050000X1.050000X2.050000X-1.050000X2.050000X0*%
%ADD20RoundRect,0.381000X0.889000X1.524000X-0.889000X1.524000X-0.889000X-1.524000X0.889000X-1.524000X0*%
%ADD21C,1.700000*%
%ADD22C,2.000000*%
%ADD23RoundRect,0.250001X-1.371645X0.873834X-0.873834X-1.371645X1.371645X-0.873834X0.873834X1.371645X0*%
%ADD24R,1.050000X1.500000*%
%ADD25O,1.050000X1.500000*%
G04 APERTURE END LIST*
D10*
%TO.C,J16*%
X161800000Y-93000000D03*
D11*
X159260000Y-93000000D03*
X156720000Y-93000000D03*
X154180000Y-93000000D03*
%TD*%
D12*
%TO.C,J1*%
X174750000Y-106967500D03*
D13*
X179750000Y-106967500D03*
%TD*%
D14*
%TO.C,J15*%
X88000000Y-81000000D03*
D15*
X90500000Y-81000000D03*
X93000000Y-81000000D03*
X95500000Y-81000000D03*
%TD*%
D16*
%TO.C,J7*%
X213000000Y-92000000D03*
D13*
X216213938Y-88169778D03*
X219427876Y-84339556D03*
%TD*%
D17*
%TO.C,RV8*%
X106000000Y-133000000D03*
X103460000Y-133000000D03*
X100920000Y-133000000D03*
%TD*%
D18*
%TO.C,R3*%
X164000000Y-98460000D03*
X164000000Y-101000000D03*
%TD*%
D19*
%TO.C,U2*%
X142300000Y-110920000D03*
X142300000Y-123620000D03*
X167700000Y-110920000D03*
X167700000Y-123620000D03*
%TD*%
D20*
%TO.C,U1*%
X137500000Y-111580001D03*
X137500000Y-109040000D03*
X137500000Y-126540000D03*
X137500000Y-124000000D03*
X100000000Y-111540000D03*
X100000000Y-109000000D03*
X100000000Y-126540000D03*
X100000000Y-123999999D03*
%TD*%
D12*
%TO.C,J5*%
X130000000Y-141000000D03*
D13*
X135000000Y-141000000D03*
X140000000Y-141000000D03*
%TD*%
D18*
%TO.C,R2*%
X166000000Y-93540000D03*
X166000000Y-91000000D03*
%TD*%
D12*
%TO.C,J10*%
X96000000Y-141000000D03*
D13*
X101000000Y-141000000D03*
X106000000Y-141000000D03*
%TD*%
D17*
%TO.C,RV6*%
X121080000Y-133000000D03*
X118540000Y-133000000D03*
X116000000Y-133000000D03*
%TD*%
D14*
%TO.C,J12*%
X90118520Y-91082198D03*
D15*
X92618520Y-91082198D03*
X95118520Y-91082198D03*
%TD*%
D12*
%TO.C,J3*%
X147000000Y-141000000D03*
D13*
X152000000Y-141000000D03*
X157000000Y-141000000D03*
%TD*%
D16*
%TO.C,J11*%
X202000000Y-105000000D03*
D13*
X205213938Y-101169778D03*
X208427876Y-97339556D03*
%TD*%
D17*
%TO.C,RV3*%
X180632681Y-118054247D03*
X179000000Y-120000000D03*
X177367320Y-121945753D03*
%TD*%
D16*
%TO.C,J4*%
X179980466Y-131300224D03*
D13*
X183194404Y-127470002D03*
X186408342Y-123639780D03*
%TD*%
D21*
%TO.C,U6*%
X192780000Y-86580000D03*
X190240000Y-86580000D03*
X187700000Y-86580000D03*
X185160000Y-86580000D03*
X182620000Y-86580000D03*
X180080000Y-86580000D03*
X177540000Y-86580000D03*
X175000000Y-86580000D03*
X172460000Y-86580000D03*
X169920000Y-86580000D03*
X192780000Y-99280000D03*
X190240000Y-99280000D03*
X187700000Y-99280000D03*
X185160000Y-99280001D03*
X182620000Y-99280000D03*
X180080000Y-99280000D03*
X177540000Y-99280000D03*
X175000000Y-99280000D03*
X172460000Y-99280000D03*
X169920000Y-99280000D03*
%TD*%
D18*
%TO.C,R1*%
X150000000Y-90460000D03*
X150000000Y-93000000D03*
%TD*%
D17*
%TO.C,RV5*%
X211265361Y-82108494D03*
X209632680Y-84054247D03*
X208000000Y-86000000D03*
%TD*%
D14*
%TO.C,J14*%
X153000000Y-83000000D03*
D15*
X155500000Y-83000000D03*
X158000000Y-83000000D03*
X160500000Y-83000000D03*
%TD*%
D17*
%TO.C,RV4*%
X154080000Y-133000000D03*
X151540000Y-133000000D03*
X149000000Y-133000000D03*
%TD*%
D12*
%TO.C,J6*%
X164250000Y-140967500D03*
D13*
X169250000Y-140967500D03*
X174250000Y-140967500D03*
%TD*%
D22*
%TO.C,U7*%
X146950000Y-63420000D03*
X144320000Y-63420000D03*
X141780000Y-63420000D03*
X139240000Y-63420000D03*
X136700000Y-63420000D03*
X134160000Y-63420000D03*
X131620000Y-63420000D03*
X129080000Y-63420000D03*
%TD*%
D17*
%TO.C,RV9*%
X202632680Y-93054247D03*
X200999999Y-95000000D03*
X199367319Y-96945753D03*
%TD*%
%TO.C,RV1*%
X171080000Y-133000000D03*
X168540000Y-133000000D03*
X166000000Y-133000000D03*
%TD*%
D16*
%TO.C,J9*%
X190980466Y-118300224D03*
D13*
X194194404Y-114470002D03*
X197408342Y-110639780D03*
%TD*%
D18*
%TO.C,R4*%
X150000000Y-96460000D03*
X150000000Y-99000000D03*
%TD*%
D23*
%TO.C,J2*%
X91917802Y-118118520D03*
D13*
X93000000Y-123000000D03*
%TD*%
D17*
%TO.C,RV2*%
X137540000Y-132995000D03*
X135000000Y-132995000D03*
X132460000Y-132995000D03*
%TD*%
D24*
%TO.C,Q1*%
X158540000Y-100000000D03*
D25*
X157270001Y-100000000D03*
X156000000Y-100000000D03*
%TD*%
D14*
%TO.C,J17*%
X154000000Y-65000000D03*
D15*
X156500001Y-65000001D03*
X158999999Y-65000001D03*
%TD*%
D14*
%TO.C,J13*%
X153000000Y-74000000D03*
D15*
X155500000Y-74000000D03*
X158000000Y-74000000D03*
X160500000Y-74000000D03*
%TD*%
D12*
%TO.C,J8*%
X113000000Y-140967500D03*
D13*
X118000000Y-140967500D03*
X123000000Y-140967500D03*
%TD*%
D17*
%TO.C,RV7*%
X191265361Y-106108494D03*
X189632680Y-108054247D03*
X188000000Y-110000000D03*
%TD*%
D18*
%TO.C,U3*%
X102000000Y-70920000D03*
X102000000Y-73460000D03*
X102000000Y-76000000D03*
X102000000Y-78540000D03*
X102000000Y-81080000D03*
X102000000Y-83620000D03*
X102000000Y-86160000D03*
X102000000Y-88700000D03*
X102000000Y-91240000D03*
X102000000Y-93780000D03*
X102000000Y-96320000D03*
X102000000Y-98860000D03*
X102000000Y-101400000D03*
X102000000Y-103940000D03*
X117240000Y-103940000D03*
X117240000Y-101400000D03*
X117240000Y-98860000D03*
X117240000Y-96320000D03*
X117240000Y-93780000D03*
X117240000Y-91240000D03*
X117240000Y-88700000D03*
X117240000Y-86160000D03*
X117240000Y-83620000D03*
X117240000Y-81080000D03*
X117240000Y-78540000D03*
X117240000Y-76000000D03*
X117240000Y-73460000D03*
X117240000Y-70920000D03*
%TD*%
D21*
%TO.C,U4*%
X195240000Y-76000000D03*
X195240000Y-73460000D03*
X195240000Y-70920000D03*
X195240000Y-68380000D03*
X195240000Y-65840000D03*
X195240000Y-63300000D03*
X195240001Y-60760000D03*
X195240000Y-58220000D03*
X195240000Y-55680000D03*
X195240000Y-53140000D03*
X192700000Y-76000000D03*
X192700000Y-73460000D03*
X192700000Y-70920000D03*
X192700000Y-68380000D03*
X192700000Y-65840000D03*
X192700000Y-63300000D03*
X192700000Y-60760000D03*
X192700000Y-58220000D03*
X192700000Y-55680000D03*
X192700000Y-53140000D03*
X169840000Y-76000000D03*
X169840000Y-73460000D03*
X169840000Y-70920000D03*
X169840000Y-68380000D03*
X169840000Y-65840000D03*
X169840001Y-63300000D03*
X169840000Y-60760000D03*
X169840000Y-58220000D03*
X169840000Y-55680000D03*
X169840000Y-53140000D03*
X167300000Y-76000000D03*
X167300000Y-73460000D03*
X167300000Y-70920000D03*
X167300000Y-68380000D03*
X167300000Y-65840000D03*
X167300000Y-63300000D03*
X167300000Y-60760000D03*
X167300000Y-58220000D03*
X167300000Y-55680000D03*
X167300000Y-53140000D03*
%TD*%
%TO.C,U5*%
X145000000Y-89000000D03*
X142460000Y-89000000D03*
X139920000Y-89000000D03*
X137380000Y-89000000D03*
X134840000Y-89000000D03*
X132300000Y-89000000D03*
X129760000Y-89000000D03*
X127220000Y-89000000D03*
X124680000Y-89000000D03*
X122140000Y-89000000D03*
X145000000Y-101700000D03*
X142460000Y-101700000D03*
X139920000Y-101700000D03*
X137380000Y-101700001D03*
X134840000Y-101700000D03*
X132300000Y-101700000D03*
X129760000Y-101700000D03*
X127220000Y-101700000D03*
X124680000Y-101700000D03*
X122140000Y-101700000D03*
%TD*%
M02*
